<?xml version="1.0" encoding="utf-8"?>
<!-- Generator: Adobe Illustrator 18.1.1, SVG Export Plug-In . SVG Version: 6.00 Build 0)  -->
<svg version="1.1" id="Layer_1" xmlns="http://www.w3.org/2000/svg" xmlns:xlink="http://www.w3.org/1999/xlink" x="0px" y="0px"
	 viewBox="194.3 24.4 852 751.1" enable-background="new 194.3 24.4 852 751.1" xml:space="preserve">
<g>
	<g>
		<path fill="#FFFFFF" d="M1037.8,433.4c0-1.2,1.2-1.2,1.2-2.5c0-1.2,1.2-1.2,1.2-2.5c0-1.2,1.2-1.2,1.2-2.5c0-1.2,1.2-1.2,1.2-2.5
			c0-1.2,1.2-1.2,1.2-2.5c0-1.2,0-1.2,1.2-2.5c0-1.2,0-1.2,1.2-2.5c0-1.2,0-1.2,0-2.5c0-1.2,0-1.2,0-2.5c0-1.2,0-2.5,0-2.5
			c0-1.2,0-1.2,0-2.5c0-3.7,0-6.2,0-9.9c0-1.2,0-1.2,0-2.5c0-1.2,0-2.5,0-2.5c0-1.2,0-1.2,0-2.5c0-1.2,0-1.2,0-2.5
			c0-1.2,0-1.2-1.2-2.5c0-1.2,0-1.2-1.2-2.5c0-1.2-1.2-1.2-1.2-2.5c0-1.2-1.2-1.2-1.2-2.5c0-1.2-1.2-1.2-1.2-2.5
			c0-1.2-1.2-1.2-1.2-2.5c0-1.2-1.2-1.2-1.2-2.5l-1.2-1.2c-1.2-1.2-2.5-2.5-3.7-3.7L723,52c-19.7-19.8-51.6-19.8-71.3,0
			s-19.7,52,0,71.8l223.8,225.4H244.7c-28.3,0-50.4,22.3-50.4,50.8c0,28.5,22.1,50.8,50.4,50.8h630.7L651.7,676.1
			c-19.7,19.8-19.7,52,0,71.8c9.8,9.9,23.4,14.9,35.7,14.9c13.5,0,25.8-5,35.7-14.9l309.8-312c1.2-1.2,2.5-2.5,3.7-3.7
			C1036.5,434.7,1036.5,433.4,1037.8,433.4z"/>
	</g>
</g>
</svg>
