<?xml version="1.0" encoding="utf-8"?>
<!-- Generator: Adobe Illustrator 18.1.1, SVG Export Plug-In . SVG Version: 6.00 Build 0)  -->
<svg version="1.1" id="Layer_1" xmlns="http://www.w3.org/2000/svg" xmlns:xlink="http://www.w3.org/1999/xlink" x="0px" y="0px"
	 viewBox="111 102 586 409" enable-background="new 111 102 586 409" xml:space="preserve">
<path fill="#FFFFFF" d="M649.2,108.5c-10.9,0-21.8,5.5-30,10.9L335.8,405.5L188.6,258.3c-8.2-8.2-16.4-10.9-30-10.9
	c-21.8,0-40.8,19.1-40.8,40.8c0,10.9,5.5,21.8,10.9,30L306,495.4c8.2,8.2,16.4,10.9,30,10.9c10.9,0,21.8-5.5,30-10.9L679.4,182
	c8.2-8.2,10.9-16.4,10.9-30C690.1,124.9,671.2,108.5,649.2,108.5z"/>
</svg>
