<?xml version="1.0" encoding="utf-8"?>
<!-- Generator: Adobe Illustrator 18.1.1, SVG Export Plug-In . SVG Version: 6.00 Build 0)  -->
<svg version="1.1" id="Layer_1" xmlns="http://www.w3.org/2000/svg" xmlns:xlink="http://www.w3.org/1999/xlink" x="0px" y="0px"
	 viewBox="91 0 604.9 612" enable-background="new 91 0 604.9 612" xml:space="preserve">
<g>
	<g transform="translate(0.000000,322.000000) scale(0.100000,-0.100000)">
		<path fill="#FFFFFF" d="M1136.3,3132.6c-75-33.7-149.9-133-166.8-221.1C941.4,2757.8,917.1,2786,2270,1429.2L3536.8,160.6
			L2268.1-1110C1571.1-1807.1,992-2397.4,980.7-2419.9c-30-60-24.4-187.4,9.4-260.5c58.1-121.8,239.8-189.3,374.8-138.7
			c28.1,11.3,625.9,588.4,1328.6,1283.7l1276.1,1263l1255.6-1257.4c721.5-721.5,1279.9-1266.8,1313.6-1281.8
			c254.8-110.6,511.6,163,387.9,410.4c-16.9,33.7-592.2,624.1-1279.9,1311.8L4398.8,164.3l1259.3,1248.1
			c1356.7,1349.2,1321.1,1308,1291.1,1472.9c-33.7,181.8-260.5,290.5-429.1,206.1c-33.7-16.8-618.4-588.4-1300.5-1268.7
			L3977.2,582.2L2717.9,1841.5C2024.5,2533,1430.5,3112,1396.8,3128.9C1323.7,3164.5,1215,3166.3,1136.3,3132.6z"/>
	</g>
</g>
</svg>
