<?xml version="1.0" encoding="utf-8"?>
<!-- Generator: Adobe Illustrator 18.1.1, SVG Export Plug-In . SVG Version: 6.00 Build 0)  -->
<svg version="1.1" id="Layer_1" xmlns="http://www.w3.org/2000/svg" xmlns:xlink="http://www.w3.org/1999/xlink" x="0px" y="0px"
	 viewBox="86 71 616 470" enable-background="new 86 71 616 470" xml:space="preserve">
<g>
	<g transform="translate(0.000000,511.000000) scale(0.100000,-0.100000)">
		<path fill="#FFFFFF" d="M998.7,4291.6l-37.5-36V2409.9V564.1l37.5-36l36-37.5h803.7h802.2V168.2c0-323.9,0-323.9,37.5-359.9
			c19.5-21,54-37.5,75-37.5c25.5,0,260.9,131.9,640.3,359.9l598.2,359.9h1446.9h1447l36,37.5l37.5,36v1845.8v1845.8l-37.5,36
			l-36,37.5H3960H1034.6L998.7,4291.6z M6718.9,2409.9V730.5H5323H3927l-523.3-314.9l-523.3-313.4v277.4c0,274.4,0,277.4-37.5,313.4
			l-36,37.5h-803.7h-802.1v1679.3v1679.3H3960h2758.9V2409.9z"/>
		<path fill="#FFFFFF" d="M1958.3,3332c-24-22.5-37.5-54-37.5-82.4s13.5-60,37.5-82.5l36-37.5H3960h1965.7l36,37.5
			c49.4,48,49.4,117,0,164.9l-36,37.5H3960H1994.3L1958.3,3332z"/>
		<path fill="#FFFFFF" d="M1958.3,2612.3c-24-22.5-37.5-54-37.5-82.5c0-28.5,13.5-60,37.5-82.5l35.9-37.5H3960h1965.7l36,37.5
			c49.4,48,49.4,117,0,164.9l-36,37.5H3960H1994.3L1958.3,2612.3z"/>
		<path fill="#FFFFFF" d="M1958.3,1892.6c-24-22.5-37.5-54-37.5-82.5s13.5-60,37.5-82.4l35.9-37.5h1006.1h1006.1l36,37.5
			c49.4,48,49.4,117,0,164.9l-36,37.5H3000.4H1994.3L1958.3,1892.6z"/>
	</g>
</g>
</svg>
