<?xml version="1.0" encoding="utf-8"?>
<!-- Generator: Adobe Illustrator 18.1.1, SVG Export Plug-In . SVG Version: 6.00 Build 0)  -->
<svg version="1.1" id="Layer_1" xmlns="http://www.w3.org/2000/svg" xmlns:xlink="http://www.w3.org/1999/xlink" x="0px" y="0px"
	 viewBox="89 6.1 606.9 605.9" enable-background="new 89 6.1 606.9 605.9" xml:space="preserve">
<g>
	<path fill="#FFFFFF" d="M649.9,503.8c0,65.4-1.2,66.5-60.8,66.5H199.7c-67.6,0-67.5,1.8-67.5-59.3l-0.1-388.2
		c0-61.6,0-60.5,67.6-60.5h226.4V26.7H197.8c-84.4,0-101.7,11.2-101.7,96v387.2c0,95.8,17.3,96,101.7,96h393.1
		c84.4,0,95.1-17.7,95.1-102.6V293h-36.2V503.8L649.9,503.8z"/>
	<path fill="#FFFFFF" d="M683.2,70.5l-51.7-51.7c-16.9-16.9-32.3-16.9-49.1,0L284.2,316.3c-0.4,0.4-0.9,0.9-1.2,1.3
		c-2.7,2.1-4.8,5.2-5.8,8.8l-13.1,83c-2.5,9.1,2.8,18.5,11.9,21c2,0.6,3.9,0.7,5.8,0.6c1.4,0.1,2.8,0.1,4.3-0.2l93.1-10.9
		c4.2-0.7,7.8-3,10.3-6.1c0.5-0.4,1-0.9,1.5-1.3l292.4-293C700.1,102.8,700.1,87.3,683.2,70.5 M653.1,100.2L361.4,391.4l-55.8,9.1
		c0,0-6.4,1.5-8.9-1.3c-2-2.2,0.5-7.7,0.5-7.7l14.6-51.5L603.5,50.7c3.5-3.5,9.3-3.5,12.9,0l36.7,36.7
		C656.7,91,656.7,96.7,653.1,100.2"/>
</g>
</svg>
