<?xml version="1.0" encoding="utf-8"?>
<!-- Generator: Adobe Illustrator 18.1.1, SVG Export Plug-In . SVG Version: 6.00 Build 0)  -->
<svg version="1.1" id="Layer_1" xmlns="http://www.w3.org/2000/svg" xmlns:xlink="http://www.w3.org/1999/xlink" x="0px" y="0px"
	 viewBox="0 0 621.3 605" enable-background="new 0 0 621.3 605" xml:space="preserve">
<g>
	<linearGradient id="SVGID_1_" gradientUnits="userSpaceOnUse" x1="240.03" y1="191.5139" x2="615.1749" y2="191.5139">
		<stop  offset="0" style="stop-color:#59CAEE"/>
		<stop  offset="0.1118" style="stop-color:#5AC4EA"/>
		<stop  offset="0.2617" style="stop-color:#5AB9E3"/>
		<stop  offset="0.4335" style="stop-color:#59A8D8"/>
		<stop  offset="0.6213" style="stop-color:#5990C8"/>
		<stop  offset="0.8198" style="stop-color:#5873B6"/>
		<stop  offset="1" style="stop-color:#5657A6"/>
	</linearGradient>
	<path fill="url(#SVGID_1_)" d="M587,3.9H408.1c-15.6,0-28.2,12.6-28.2,28.2s12.6,28.2,28.2,28.2h110.7L248.3,330.9
		c-11,11-11,28.9,0,39.9c5.5,5.5,12.7,8.3,20,8.3c7.2,0,14.4-2.8,20-8.3l270.5-270.5V211c0,15.6,12.6,28.2,28.2,28.2
		c15.6,0,28.2-12.6,28.2-28.2V32.2C615.2,16.6,602.5,3.9,587,3.9z"/>
	<linearGradient id="SVGID_2_" gradientUnits="userSpaceOnUse" x1="4.4247" y1="353.4795" x2="499.7513" y2="353.4795">
		<stop  offset="0" style="stop-color:#59CAEE"/>
		<stop  offset="0.1118" style="stop-color:#5AC4EA"/>
		<stop  offset="0.2617" style="stop-color:#5AB9E3"/>
		<stop  offset="0.4335" style="stop-color:#59A8D8"/>
		<stop  offset="0.6213" style="stop-color:#5990C8"/>
		<stop  offset="0.8198" style="stop-color:#5873B6"/>
		<stop  offset="1" style="stop-color:#5657A6"/>
	</linearGradient>
	<path fill="url(#SVGID_2_)" d="M471.5,239.2c-15.6,0-28.2,12.6-28.2,28.2v277.3H60.9V162.2h294c15.6,0,28.2-12.6,28.2-28.2
		s-12.6-28.2-28.2-28.2H32.6c-15.6,0-28.2,12.6-28.2,28.2v438.9c0,15.6,12.6,28.2,28.2,28.2h438.9c15.6,0,28.2-12.6,28.2-28.2V267.4
		C499.8,251.8,487.1,239.2,471.5,239.2z"/>
</g>
</svg>
