<?xml version="1.0" encoding="utf-8"?>
<!-- Generator: Adobe Illustrator 18.1.1, SVG Export Plug-In . SVG Version: 6.00 Build 0)  -->
<svg version="1.1" id="Layer_1" xmlns="http://www.w3.org/2000/svg" xmlns:xlink="http://www.w3.org/1999/xlink" x="0px" y="0px"
	 viewBox="87 0 615 612" enable-background="new 87 0 615 612" xml:space="preserve">
<g>
	<path fill="#FFFFFF" d="M262.7,248.7l-42.4,42.5l152.3,151.9l321.7-306.7l-41.5-43.5L373.5,359.1L262.7,248.7z M635.2,336
		c-14.9,118.5-116,210.5-238.4,210.5c-132.6,0-240.5-107.9-240.5-240.5c0-132.7,107.9-240.6,240.5-240.6
		c42.6,0,82.6,11.3,117.3,30.8l43.8-43.8C511.3,22.7,456.2,5.3,396.8,5.3C230.8,5.3,96.1,139.9,96.1,306
		c0,166,134.6,300.7,300.7,300.7c155.9,0,284-118.7,299.1-270.6L635.2,336L635.2,336z"/>
</g>
</svg>
