<?xml version="1.0" encoding="utf-8"?>
<!-- Generator: Adobe Illustrator 18.1.1, SVG Export Plug-In . SVG Version: 6.00 Build 0)  -->
<svg version="1.1" id="Layer_1" xmlns="http://www.w3.org/2000/svg" xmlns:xlink="http://www.w3.org/1999/xlink" x="0px" y="0px"
	 viewBox="0 0 640 480" enable-background="new 0 0 640 480" xml:space="preserve">
<g>
	<g>
		<path fill="#FFFFFF" d="M241.6,4.8H124c-21.7,0-39.2,17.5-39.2,39.2v117.6c0,21.6,17.5,39.2,39.2,39.2h117.6
			c21.7,0,39.2-17.6,39.2-39.2V44C280.8,22.4,263.3,4.8,241.6,4.8z M516,4.8H398.4c-21.7,0-39.2,17.5-39.2,39.2v117.6
			c0,21.6,17.5,39.2,39.2,39.2H516c21.7,0,39.2-17.6,39.2-39.2V44C555.2,22.4,537.7,4.8,516,4.8z M241.6,279.2H124
			c-21.7,0-39.2,17.5-39.2,39.2V436c0,21.6,17.5,39.2,39.2,39.2h117.6c21.7,0,39.2-17.6,39.2-39.2V318.4
			C280.8,296.8,263.3,279.2,241.6,279.2z M516,279.2H398.4c-21.7,0-39.2,17.5-39.2,39.2V436c0,21.6,17.5,39.2,39.2,39.2H516
			c21.7,0,39.2-17.6,39.2-39.2V318.4C555.2,296.8,537.7,279.2,516,279.2z"/>
	</g>
</g>
</svg>
