<?xml version="1.0" encoding="utf-8"?>
<!-- Generator: Adobe Illustrator 18.1.1, SVG Export Plug-In . SVG Version: 6.00 Build 0)  -->
<svg version="1.1" id="Layer_1" xmlns="http://www.w3.org/2000/svg" xmlns:xlink="http://www.w3.org/1999/xlink" x="0px" y="0px"
	 viewBox="89 0 612 612" enable-background="new 89 0 612 612" xml:space="preserve">
<g>
	<path fill="#FFFFFF" d="M396,6.1C230.4,6.1,96.1,140.4,96.1,306S230.4,605.9,396,605.9S695.9,471.6,695.9,306S561.6,6.1,396,6.1z
		 M433.7,473.1c0,20.9-16.9,37.8-37.8,37.8c-20.9,0-37.8-17-37.8-37.8c0-1,0.1-1.9,0.1-2.8V247.5l0,0v-0.1
		c0-20.9,16.9-37.8,37.8-37.8c20.9,0,37.8,16.9,37.8,37.8c0,1.4-0.1,2.8-0.2,4.2v218.6C433.6,471.2,433.7,472.1,433.7,473.1z
		 M396,178.9c-21.5,0-38.9-17.4-38.9-38.9s17.4-38.9,38.9-38.9c21.5,0,38.9,17.4,38.9,38.9S417.5,178.9,396,178.9z"/>
</g>
</svg>
