<?xml version="1.0" encoding="utf-8"?>
<!-- Generator: Adobe Illustrator 18.1.1, SVG Export Plug-In . SVG Version: 6.00 Build 0)  -->
<svg version="1.1" id="Layer_1" xmlns="http://www.w3.org/2000/svg" xmlns:xlink="http://www.w3.org/1999/xlink" x="0px" y="0px"
	 viewBox="0 0 640 480" enable-background="new 0 0 640 480" xml:space="preserve">
<path fill="#FFFFFF" d="M324.3,128.9c-62.7,0-113.8,50.9-113.8,113.6s50.9,113.6,113.6,113.6s113.6-50.9,113.6-113.6
	C437.9,179.8,386.8,128.9,324.3,128.9z M324.3,315.3c-40.2,0-72.7-32.8-72.7-72.7s32.5-73,72.7-73s72.7,32.8,72.7,72.7
	S364.5,315.3,324.3,315.3z"/>
<path fill="#FFFFFF" d="M414.4,473.3H230.2c-76.4,0-138.7-62.3-138.7-138.7V150.3c0-76.4,62.3-138.7,138.7-138.7h184.2
	c76.4,0,138.7,62.3,138.7,138.7v184.2C553.1,411,490.9,473.3,414.4,473.3z M230.2,55.1c-52.5,0-95.3,42.7-95.3,95.3v184.2
	c0,52.5,42.7,95.3,95.3,95.3h184.2c52.5,0,95.3-42.7,95.3-95.3V150.3c0-52.5-42.7-95.3-95.3-95.3C414.4,55.1,230.2,55.1,230.2,55.1z
	"/>
</svg>
