<?xml version="1.0" encoding="utf-8"?>
<!-- Generator: Adobe Illustrator 18.1.1, SVG Export Plug-In . SVG Version: 6.00 Build 0)  -->
<svg version="1.1" id="Layer_1" xmlns="http://www.w3.org/2000/svg" xmlns:xlink="http://www.w3.org/1999/xlink" x="0px" y="0px"
	 viewBox="0 0 640 480" enable-background="new 0 0 640 480" xml:space="preserve">
<path fill="#FFFFFF" d="M93.8,159.7h97v311.4h-97V159.7z M142.3,4.9c31,0,56.2,25.2,56.2,56.2s-25.2,56.2-56.2,56.2
	c-31,0-56.2-25.2-56.2-56.2S111.3,4.9,142.3,4.9"/>
<path fill="#FFFFFF" d="M251.7,159.7h92.7v42.7h1.2c12.9-24.6,44.5-50.4,91.5-50.4c98,0,116.1,64.5,116.1,148.3v170.7h-96.7V319.7
	c0-36.2-0.6-82.6-50.4-82.6c-50.4,0-58,39.3-58,79.8v154.2h-96.4V159.7z"/>
</svg>
