<?xml version="1.0" encoding="utf-8"?>
<!-- Generator: Adobe Illustrator 18.1.1, SVG Export Plug-In . SVG Version: 6.00 Build 0)  -->
<svg version="1.1" id="Layer_1" xmlns="http://www.w3.org/2000/svg" xmlns:xlink="http://www.w3.org/1999/xlink" x="0px" y="0px"
	 viewBox="0 0 640 480" enable-background="new 0 0 640 480" xml:space="preserve">
<g>
	<g>
		<path fill="#FFFFFF" d="M187.7,357.6H99.5c-8.1,0-14.7,6.6-14.7,14.7v88.2c0,8.1,6.6,14.7,14.7,14.7h88.2
			c8.1,0,14.7-6.6,14.7-14.7v-88.2C202.4,364.2,195.8,357.6,187.7,357.6z M173,431.1c0,8.1-6.6,14.7-14.7,14.7h-29.4
			c-8.1,0-14.7-6.6-14.7-14.7v-29.4c0-8.1,6.6-14.7,14.7-14.7h29.4c8.1,0,14.7,6.6,14.7,14.7V431.1z M540.5,387H275.9
			c-8.1,0-14.7,6.6-14.7,14.7v29.4c0,8.1,6.6,14.7,14.7,14.7h264.6c8.1,0,14.7-6.6,14.7-14.7v-29.4C555.2,393.6,548.6,387,540.5,387
			z M540.5,210.6H275.9c-8.1,0-14.7,6.6-14.7,14.7v29.4c0,8.1,6.6,14.7,14.7,14.7h264.6c8.1,0,14.7-6.6,14.7-14.7v-29.4
			C555.2,217.2,548.6,210.6,540.5,210.6z M187.7,4.8H99.5c-8.1,0-14.7,6.6-14.7,14.7v88.2c0,8.1,6.6,14.7,14.7,14.7h88.2
			c8.1,0,14.7-21.3,14.7-29.4V19.5C202.4,11.4,195.8,4.8,187.7,4.8z M173,78.3c0,8.1-6.6,14.7-14.7,14.7h-29.4
			c-8.1,0-14.7-6.6-14.7-14.7V48.9c0-8.1,6.6-14.7,14.7-14.7h29.4c8.1,0,14.7,6.6,14.7,14.7V78.3z M187.7,181.2H99.5
			c-8.1,0-14.7,6.6-14.7,14.7v88.2c0,8.1,6.6,14.7,14.7,14.7h88.2c8.1,0,14.7-6.6,14.7-14.7v-88.2
			C202.4,187.8,195.8,181.2,187.7,181.2z M173,254.7c0,8.1-6.6,14.7-14.7,14.7h-29.4c-8.1,0-14.7-6.6-14.7-14.7v-29.4
			c0-8.1,6.6-14.7,14.7-14.7h29.4c8.1,0,14.7,6.6,14.7,14.7V254.7z M540.5,34.2H275.9c-8.1,0-14.7,6.6-14.7,14.7v29.4
			c0,8.1,6.6,14.7,14.7,14.7h264.6c8.1,0,14.7-6.6,14.7-14.7V48.9C555.2,40.8,548.6,34.2,540.5,34.2z"/>
	</g>
</g>
</svg>
