<?xml version="1.0" encoding="utf-8"?>
<!-- Generator: Adobe Illustrator 18.1.1, SVG Export Plug-In . SVG Version: 6.00 Build 0)  -->
<svg version="1.1" id="Layer_1" xmlns="http://www.w3.org/2000/svg" xmlns:xlink="http://www.w3.org/1999/xlink" x="0px" y="0px"
	 viewBox="90 33 613 548" enable-background="new 90 33 613 548" xml:space="preserve">
<g>
	<path fill="#FFFFFF" d="M328.3,468.5c-36.1,33.8-92.2,32.1-125.9-3.4c-33.8-35.5-32.7-92.2,3.4-126c35.5-33.8,91.6-32.1,125.4,3.4
		C365.5,378,363.7,434.7,328.3,468.5L328.3,468.5z M665.5,207.9l30.4-28.6l-67.6-71.1l10.3-9.7l-57.8-60.7L351.8,256
		c-63.5-36.6-146.6-29.2-202.1,24.1c-68.7,64.7-71.6,173-6.9,241.1c65.3,68.2,173,71.1,241.7,6.3c59.5-56.7,69.3-146.1,27.5-213.1
		l143.1-136.3l49.8,52.1l30.4-28.6l-49.8-52.1l13.2-12.6L665.5,207.9z"/>
</g>
</svg>
