<?xml version="1.0" encoding="utf-8"?>
<!-- Generator: Adobe Illustrator 18.1.1, SVG Export Plug-In . SVG Version: 6.00 Build 0)  -->
<svg version="1.1" id="Layer_1" xmlns="http://www.w3.org/2000/svg" xmlns:xlink="http://www.w3.org/1999/xlink" x="0px" y="0px"
	 viewBox="84 0 618 612" enable-background="new 84 0 618 612" xml:space="preserve">
<g>
	<path fill="#FFFFFF" d="M396,605.9C230.6,605.9,96.1,471.4,96.1,306S230.6,6.1,396,6.1S695.9,140.6,695.9,306
		c0,99-48.8,191.6-130.7,247.6c-9.8,6.7-23.2,4.2-29.9-5.6c-6.7-9.8-4.2-23.2,5.6-29.9c70.1-48,112-127.2,112-212.1
		c0-141.6-115.2-256.8-256.8-256.8S139.2,164.4,139.2,306S254.4,562.8,396,562.8c11.9,0,21.5,9.6,21.5,21.5S407.9,605.9,396,605.9z
		 M557.4,243.2H338.6c-11.9,0-21.5-9.6-21.5-21.5c0-11.9,9.6-21.5,21.5-21.5h218.9c11.9,0,21.5,9.6,21.5,21.5
		C579,233.6,569.3,243.2,557.4,243.2z M557.4,329.3H234.6c-11.9,0-21.5-9.6-21.5-21.5c0-11.9,9.6-21.5,21.5-21.5h322.9
		c11.9,0,21.5,9.6,21.5,21.5S569.3,329.3,557.4,329.3z M557.4,411.9H421.1c-11.9,0-21.5-9.6-21.5-21.5s9.6-21.5,21.5-21.5h136.4
		c11.9,0,21.5,9.6,21.5,21.5C579,402.2,569.3,411.9,557.4,411.9z"/>
</g>
</svg>
