<?xml version="1.0" encoding="utf-8"?>
<!-- Generator: Adobe Illustrator 18.1.1, SVG Export Plug-In . SVG Version: 6.00 Build 0)  -->
<svg version="1.1" id="inside" xmlns="http://www.w3.org/2000/svg" xmlns:xlink="http://www.w3.org/1999/xlink" x="0px" y="0px"
	 viewBox="0 0 800 600" enable-background="new 0 0 800 600" xml:space="preserve">
<path fill="#6EE8FC" d="M709.4,428.5c2,3.3-1.6,6.9-4.9,4.9c-0.4-0.2-0.8-0.6-1-1c-2-3.3,1.6-6.9,4.9-4.9
	C708.8,427.7,709.2,428.1,709.4,428.5z"/>
<g>
	
		<linearGradient id="SVGID_1_" gradientUnits="userSpaceOnUse" x1="331.5637" y1="527.9" x2="339.5792" y2="527.9" gradientTransform="matrix(1.9582 0 0 -1.9582 6.9843 1174.9347)">
		<stop  offset="0" style="stop-color:#32DAFF"/>
		<stop  offset="0.1256" style="stop-color:#33D4FE"/>
		<stop  offset="0.2941" style="stop-color:#37C3FC"/>
		<stop  offset="0.487" style="stop-color:#3DA7F9"/>
		<stop  offset="0.6981" style="stop-color:#4580F5"/>
		<stop  offset="0.9215" style="stop-color:#504EEF"/>
		<stop  offset="1" style="stop-color:#543BED"/>
	</linearGradient>
	
		<linearGradient id="SVGID_2_" gradientUnits="userSpaceOnUse" x1="330.8565" y1="527.9114" x2="340.2863" y2="527.9114" gradientTransform="matrix(1.9582 0 0 -1.9582 6.9843 1174.9347)">
		<stop  offset="0" style="stop-color:#A3E0F6"/>
		<stop  offset="0.1371" style="stop-color:#9FDAF6"/>
		<stop  offset="0.321" style="stop-color:#93C9F7"/>
		<stop  offset="0.5315" style="stop-color:#80ADF9"/>
		<stop  offset="0.7599" style="stop-color:#6686FB"/>
		<stop  offset="0.9655" style="stop-color:#4A5DFD"/>
	</linearGradient>
	<polygon fill="url(#SVGID_1_)" stroke="url(#SVGID_2_)" stroke-miterlimit="10" points="668.9,149 656.3,136.5 659.3,133.4 
		672,146.1 	"/>
	
		<linearGradient id="SVGID_3_" gradientUnits="userSpaceOnUse" x1="331.5637" y1="527.9" x2="339.5792" y2="527.9" gradientTransform="matrix(1.9582 0 0 -1.9582 6.9843 1174.9347)">
		<stop  offset="0" style="stop-color:#32DAFF"/>
		<stop  offset="0.1256" style="stop-color:#33D4FE"/>
		<stop  offset="0.2941" style="stop-color:#37C3FC"/>
		<stop  offset="0.487" style="stop-color:#3DA7F9"/>
		<stop  offset="0.6981" style="stop-color:#4580F5"/>
		<stop  offset="0.9215" style="stop-color:#504EEF"/>
		<stop  offset="1" style="stop-color:#543BED"/>
	</linearGradient>
	
		<linearGradient id="SVGID_4_" gradientUnits="userSpaceOnUse" x1="330.8565" y1="527.9028" x2="340.2863" y2="527.9028" gradientTransform="matrix(1.9582 0 0 -1.9582 6.9843 1174.9347)">
		<stop  offset="0" style="stop-color:#A3E0F6"/>
		<stop  offset="0.1371" style="stop-color:#9FDAF6"/>
		<stop  offset="0.321" style="stop-color:#93C9F7"/>
		<stop  offset="0.5315" style="stop-color:#80ADF9"/>
		<stop  offset="0.7599" style="stop-color:#6686FB"/>
		<stop  offset="0.9655" style="stop-color:#4A5DFD"/>
	</linearGradient>
	<polygon fill="url(#SVGID_3_)" stroke="url(#SVGID_4_)" stroke-miterlimit="10" points="659.3,149 656.3,146.1 668.9,133.4 
		672,136.5 	"/>
</g>
<linearGradient id="SVGID_5_" gradientUnits="userSpaceOnUse" x1="362" y1="431.9" x2="395.4" y2="431.9" gradientTransform="matrix(1.9582 0 0 -1.9582 6.9843 1174.9347)">
	<stop  offset="0" style="stop-color:#32DAFF"/>
	<stop  offset="0.1256" style="stop-color:#33D4FE"/>
	<stop  offset="0.2941" style="stop-color:#37C3FC"/>
	<stop  offset="0.487" style="stop-color:#3DA7F9"/>
	<stop  offset="0.6981" style="stop-color:#4580F5"/>
	<stop  offset="0.9215" style="stop-color:#504EEF"/>
	<stop  offset="1" style="stop-color:#543BED"/>
</linearGradient>
<path fill="url(#SVGID_5_)" d="M742.1,347c1.6-0.4,2.7-7.8,6.1-17.4L742.1,347z M755,310.4l-6.5,18.4c0.2-0.6,0.4-1,0.6-1.4
	C752.5,318,757.2,311.9,755,310.4z M755,310.4l-6.5,18.4c0.2-0.6,0.4-1,0.6-1.4C752.5,318,757.2,311.9,755,310.4z M748.4,329.6
	l-6.1,17.4C743.7,346.6,744.8,339.4,748.4,329.6z M773.2,326.6c0.6-3.1,0.8-6.3,0.6-9.2l7.4-4.7l-3.5-16.3l-7,7
	c-1-2-2.3-3.9-3.7-5.3c-0.4-0.4-0.8-0.8-1.2-1.2l1.6-3.7l2.7-6.5l-11.7-3.9l-2.7,10.2c-1.4,0-2.7,0.2-4.3,0.6
	c-1.2,0.4-2.5,0.8-3.7,1.4l-1.4-9.8l-12.9,9.8l2.9,8.6c-0.2,0.4-0.6,0.6-0.8,1c-2,2.3-3.9,5.3-5.5,8.2l-4.7-2.5l-1.6-1l-6.7,18.4
	l1.6,0.2l5.7,1c-0.8,3.9-1,7.6-1,11.2l-0.2,0.2l-7.2,4.5l3.5,16.3l7.2-6.9c0.8,1.6,1.8,3.1,2.7,4.3c0.6,0.8,1.4,1.6,2.2,2.2
	l-4.5,10.2l11.6,4.5l1.8-6.5l1.2-4.5c2.5,0,5.3-0.6,8-2l1.2,9.8l12.9-9.8l-2.9-8.6c1.8-2.2,3.5-4.5,5.1-7c0.4-0.8,0.8-1.4,1.2-2.2
	l6.3,3.5l6.7-18.4l-7.2-1.2C772.8,328,773,327.2,773.2,326.6z M736.8,324.7c1.8-4.9,4.5-9,7.8-11.6c3.3-2.7,7-3.7,10.4-2.5
	c6.1,2.2-2,7.6-5.9,17c3.5-9.4,8-15.5,5.9-17l-6.5,18.4l-0.2,0.8c-3.1,9.8,0.2,19.6-6.1,17.4c-3.1-1.2-5.3-4.1-6.3-8
	C734.9,334.9,735.1,329.8,736.8,324.7z M748.4,329.6l-6.1,17.4C743.7,346.6,744.8,339.4,748.4,329.6z M742.1,347
	c1.6-0.4,2.7-7.8,6.1-17.4L742.1,347z M755,310.4l-6.5,18.4c0.2-0.6,0.4-1,0.6-1.4C752.5,318,757.2,311.9,755,310.4z M742.1,347
	c1.6-0.4,2.7-7.8,6.1-17.4L742.1,347z M755,310.4l-6.5,18.4c0.2-0.6,0.4-1,0.6-1.4C752.5,318,757.2,311.9,755,310.4z"/>
<linearGradient id="SVGID_6_" gradientUnits="userSpaceOnUse" x1="355.2671" y1="433.5" x2="394.9472" y2="433.5" gradientTransform="matrix(1.9582 0 0 -1.9582 6.9843 1174.9347)">
	<stop  offset="0" style="stop-color:#32DAFF"/>
	<stop  offset="1" style="stop-color:#8E4EF5"/>
</linearGradient>
<path fill="url(#SVGID_6_)" d="M772.1,326l0.8-10l7.6-3.7l-2.5-15.7l-10.6-3.5L767,293l3.1-6.3l-11.7-3.9l-4.9-1.6l-11.6-4.5
	l-2.2,7.8l-10.2-4.7l-12.9,9.8v0.2l3.9,10.4l-12.1,33.5l-5.9,22.7v1l0,0l11.6,0.2l-3.7,8.2l11.6,4.3l16.6,5.3l-2.7-4.1l-1.8-2l0,0
	l6.1,0.8l10.4,2.7l12.9-10l-8-9.6l10.2-6.3l7.4,1.4l6.7-18.4l-6.9-3.3L772.1,326z M736.8,324.7c1.8-4.9,4.5-9,7.8-11.6
	c3.3-2.7,7-3.7,10.4-2.5l-6.5,18.4l-0.2,0.8l-6.1,17.4c-3.1-1.2-5.3-4.1-6.3-8C734.9,334.9,735.1,329.8,736.8,324.7z"/>
<linearGradient id="SVGID_7_" gradientUnits="userSpaceOnUse" x1="352.9486" y1="434.9" x2="386.9486" y2="434.9" gradientTransform="matrix(1.9582 0 0 -1.9582 6.9843 1174.9347)">
	<stop  offset="0" style="stop-color:#32DAFF"/>
	<stop  offset="1" style="stop-color:#8E4EF5"/>
</linearGradient>
<path fill="url(#SVGID_7_)" d="M757.2,311.9l7.4-4.7l-3.5-16.3l-7.2,6.9c-0.8-1.6-1.8-3.1-2.7-4.3c-0.6-0.8-1.4-1.6-2.2-2.2
	l4.5-10.2l-11.6-4.5l-2.2,7.8l-0.8,3.1c-2.5,0-5.3,0.6-8,2l-1.6-9.8l-13.3,9.8l0,0l0.4,0.2l3.1,8.4c-2.3,2.7-4.3,5.7-6.3,9.2
	l-6.3-3.5l-6.7,18.4l7.2,1.2c-0.8,3.9-1,7.6-1,11.2l-8.6,4.7l2.3,16.1l0,0l8.2-6.9c1.4,2.5,3.5,4.9,5.5,6.7l-4.1,10.2l11.7,4.5
	l3.1-11c1.4,0,2.9-0.2,4.3-0.6c1.2-0.4,2.5-0.8,3.7-1.4l1.4,9.8l12.9-9.8l-2.9-8.6c2.3-2.7,4.5-5.7,6.3-9.2l6.3,3.5l6.7-18.4
	l-7.2-1.2C757,319.4,757.4,315.7,757.2,311.9z M725.7,341.7c-1-0.4-1.8-0.8-2.5-1.4c-2.9-2.3-4.5-7-4.3-12.3c0-2.7,0.6-5.7,1.6-8.6
	c1.2-3.5,2.9-6.7,5.1-9c3.1-3.5,6.7-5.7,10.2-5.7c1,0,2,0.2,2.7,0.4c3.1,1.2,5.3,4.1,6.3,8c1,4.1,0.8,9.2-1,14.3
	c-1.8,4.9-4.5,9-7.8,11.6C732.5,341.7,728.8,342.7,725.7,341.7z"/>
<linearGradient id="SVGID_8_" gradientUnits="userSpaceOnUse" x1="4.1912" y1="354.1" x2="54.8001" y2="354.1" gradientTransform="matrix(1.9582 0 0 -1.9582 6.9843 1174.9347)">
	<stop  offset="0" style="stop-color:#32DAFF"/>
	<stop  offset="1" style="stop-color:#8E4EF5"/>
</linearGradient>
<path fill="url(#SVGID_8_)" d="M101.8,516.8H27.9c-5.9,0-10.8-4.7-11-10.6l-1.6-48.6c-0.2-6.3,4.7-11.4,11-11.4h77
	c6.3,0,11.2,5.1,11,11.4l-1.6,48.6C112.5,512.1,107.8,516.8,101.8,516.8z"/>
<g>
	<polygon fill="#FFFFFF" points="46.5,462.5 28.3,483.7 46.7,499.5 46.7,491.3 36.2,482.1 46.1,470.8 	"/>
	<polygon fill="#FFFFFF" points="83.2,463.5 101.2,484.7 82.6,500.3 82.6,492.3 93.3,483.1 81.6,470.4 	"/>
	<polygon fill="#FFFFFF" points="52.6,499.5 68.7,464.5 76.1,464.5 58.1,499.5 	"/>
</g>
<path fill="#4A5DFD" d="M275.7,28.2c2.5,5.1-2.5,10-7.4,7.4c-1-0.4-1.6-1.2-2.2-2.2c-2.5-5.1,2.5-10,7.4-7.4
	C274.3,26.4,275.1,27.2,275.7,28.2z"/>
<path fill="#A3E0F6" d="M181.3,580.6c3.1,6.1-2.9,12.1-9,9c-1-0.6-2-1.4-2.3-2.3c-3.1-6.1,2.9-12.1,9-9
	C179.7,578.9,180.7,579.6,181.3,580.6z"/>
<path fill="#6EE8FC" d="M136.8,553c1.8,3.3-1.6,6.7-4.7,4.7c-0.4-0.2-0.8-0.6-1-1c-1.8-3.3,1.6-6.7,4.7-4.7
	C136.2,552.4,136.4,552.6,136.8,553z"/>
<g>
	<path fill="#6EE8FC" d="M64,192.3c2.7,4.7-2.2,9.8-6.9,6.9c-0.6-0.4-1-0.8-1.2-1.2c-2.7-4.7,2.2-9.8,6.9-6.9
		C63.2,191.3,63.6,191.7,64,192.3z"/>
	<path fill="#6EE8FC" d="M430.7,13.3c2.7,4.7-2.2,9.8-6.9,6.9c-0.6-0.4-1-0.8-1.2-1.2c-2.7-4.7,2.2-9.8,6.9-6.9
		C430,12.3,430.5,12.7,430.7,13.3z"/>
	<path fill="#6EE8FC" d="M84.3,182.7c1.4,2.5-1.2,5.3-3.7,3.7c-0.4-0.2-0.6-0.4-0.8-0.8c-1.4-2.5,1.2-5.3,3.7-3.7
		C83.9,182.1,84.1,182.3,84.3,182.7z"/>
</g>
<path fill="#4A5DFD" d="M552.2,31.7c1.8,3.1-1.4,6.3-4.5,4.5c-0.4-0.2-0.6-0.6-1-1c-1.8-3.1,1.4-6.3,4.5-4.5
	C551.6,31.1,552,31.3,552.2,31.7z"/>
<g>
	<g>
		<polygon fill="#6EE1F8" points="81,356 79.8,351.9 89.2,349.2 86.5,339.9 90.8,338.8 94.5,352.3 		"/>
	</g>
	<g>
		<polygon fill="#6EE1F8" points="72.8,370.7 71.6,366.4 81,363.8 78.3,354.4 82.6,353.3 86.3,366.8 		"/>
	</g>
	<g>
		<polygon fill="#6EE1F8" points="81.6,366 77.7,352.5 91.2,348.6 92.4,352.9 83.2,355.4 85.7,364.8 		"/>
	</g>
</g>
<path fill="#6EE1F8" d="M403.5,23.3c-5.7,0-10.4,4.7-10.4,10.4c0,5.7,4.7,10.4,10.4,10.4c5.7,0,10.4-4.7,10.4-10.4
	C413.9,27.8,409.4,23.3,403.5,23.3z M403.5,39.6c-3.3,0-6.1-2.7-6.1-6.1s2.7-6.1,6.1-6.1c3.3,0,6.1,2.7,6.1,6.1
	C409.6,37,406.9,39.6,403.5,39.6z"/>
<path fill="#6EE1F8" d="M631.3,539.9l-11.7,11.7l11.7,11.7l11.7-11.7L631.3,539.9z M625.6,551.6l5.7-5.7l5.7,5.7l-5.7,5.7
	L625.6,551.6z"/>
<linearGradient id="SVGID_9_" gradientUnits="userSpaceOnUse" x1="-69.2645" y1="524.2936" x2="-60.6084" y2="556.4409" gradientTransform="matrix(-1.9582 0 0 -1.9582 16.6611 1174.9347)">
	<stop  offset="0" style="stop-color:#32DAFF"/>
	<stop  offset="1" style="stop-color:#8E4EF5"/>
</linearGradient>
<polygon fill="url(#SVGID_9_)" points="173.4,142.6 175.6,92.2 109.6,92.2 112.3,142.4 "/>
<linearGradient id="SVGID_10_" gradientUnits="userSpaceOnUse" x1="-84.1496" y1="528.0054" x2="-77.6903" y2="551.994" gradientTransform="matrix(-1.9582 0 0 -1.9582 16.6611 1174.9347)">
	<stop  offset="0" style="stop-color:#1852A0"/>
	<stop  offset="1" style="stop-color:#067ED3"/>
</linearGradient>
<polygon fill="url(#SVGID_10_)" points="175.6,92.2 177.5,95.2 175.6,142.6 173.4,142.6 "/>
<path fill="#FFFFFF" d="M150.3,102.2c0,0,7.2-0.2,8.4,0.4c1.4,0.6-0.4,12.3-0.4,12.3l2.9,2.7l-2.7,2.5c0,0,0.2,11.9-1.6,12.9
	s-7.4,0-7.4,0v-2.9c0,0,4.7,0.4,5.5-0.4c0.8-0.8,0.8-11.2,0.8-11.2l1.4-1.4l-1.4-1.4c0,0,0.2-7.4,0-9.4c0-1.4-5.7-1.4-5.7-1.4v-2.9
	H150.3z"/>
<path fill="#FFFFFF" d="M133.7,102.2c0,0-7.2-0.2-8.4,0.4c-1.4,0.6,0.4,12.3,0.4,12.3l-3.1,2.7l2.7,2.5c0,0-0.2,11.9,1.6,12.9
	s7.4,0,7.4,0v-2.9c0,0-4.7,0.4-5.5-0.4c-0.8-0.8-0.8-11.2-0.8-11.2l-1.2-1.2l1.4-1.6c0,0-0.2-7.4,0-9.4c0-1.4,5.7-1.4,5.7-1.4v-2.9
	H133.7z"/>
<linearGradient id="SVGID_11_" gradientUnits="userSpaceOnUse" x1="208.5778" y1="-40" x2="517.221" y2="-40">
	<stop  offset="0" style="stop-color:#32DAFF"/>
	<stop  offset="1" style="stop-color:#8E4EF5"/>
</linearGradient>
<rect x="208.6" y="-75.5" fill="url(#SVGID_11_)" width="308.6" height="71"/>
</svg>
