<?xml version="1.0" encoding="utf-8"?>
<!-- Generator: Adobe Illustrator 18.1.1, SVG Export Plug-In . SVG Version: 6.00 Build 0)  -->
<svg version="1.1" id="Layer_1" xmlns="http://www.w3.org/2000/svg" xmlns:xlink="http://www.w3.org/1999/xlink" x="0px" y="0px"
	 viewBox="370.6 255.1 324 310.5" enable-background="new 370.6 255.1 324 310.5" xml:space="preserve">
<g>
	<g>
		<path fill="#FFFFFF" d="M650.4,415.4c0.4-7.7,0-15-1.2-22.3l38.1-20l-32.3-62l-38.1,20c-10.8-10.4-23.9-18.9-38.5-24.2l1.9-42.7
			l-70-3.1l-1.9,42.7c-6.5,1.9-13.1,4.2-19.2,7.3c-0.8,0.4-1.5,0.8-2.3,1.2c-0.8,0.4-1.5,0.8-2.3,1.2c-5.8,3.1-11.5,6.9-16.9,11.5
			l-36.2-23.1l-37.3,59.3l36.2,23.1c-1.5,6.5-2.7,13.5-3.1,20.4c0,0.8,0,1.5,0,2.3s0,1.5,0,2.3c0,6.9,0.4,13.5,1.5,20.4l-38.1,20
			l32.3,62l38.1-20c11.2,10.8,24.2,18.9,38.5,24.2l-1.9,43.1l70,3.1l1.9-43.1c6.9-1.9,14.2-5,20.8-8.5c6.9-3.5,13.5-8.1,19.2-12.7
			l36.6,23.1l37.3-59.3L647,438.5C648.9,430.8,650.1,423.1,650.4,415.4z M582.7,462c-0.4,0.4-0.8,0.4-0.8,0.8
			c-1.2,1.2-2.7,1.9-3.8,3.1c-0.8,0.4-1.2,0.8-1.9,1.2c-1.2,0.8-2.3,1.5-3.5,1.9c-0.8,0.4-1.9,1.2-2.7,1.5s-1.9,0.8-2.7,1.5
			c-1.2,0.4-2.3,1.2-3.5,1.5c-0.8,0.4-1.5,0.4-2.3,0.8c-1.5,0.4-3.1,1.2-4.6,1.5c-0.4,0-0.8,0.4-1.2,0.4c-6.2,1.5-12.7,2.3-19.6,1.9
			c-37.3-1.5-66.2-33.1-64.6-70c0.4-9.2,2.7-17.7,6.2-25.4c0-0.4,0.4-0.8,0.4-1.2c0.8-1.5,1.5-2.7,2.3-3.8c0.4-0.8,1.2-1.5,1.5-2.3
			c0.4-0.8,1.2-1.5,1.5-2.3c0.8-1.2,1.9-2.3,2.7-3.5c0.4-0.4,0.4-0.8,0.8-0.8c5.4-6.5,12.3-12.3,20.4-16.5
			c33.1-17.3,73.9-4.6,90.8,28.5c3.1,6.2,5.4,12.3,6.5,18.9c0,0.4,0,0.8,0.4,1.2c0.4,1.5,0.4,3.1,0.8,5c0,0.8,0,1.5,0,2.3
			c0,1.2,0,2.7,0,3.8c0,1.2,0,1.9,0,3.1s0,1.9-0.4,3.1c0,1.2-0.4,2.7-0.4,3.8c0,0.8-0.4,1.5-0.4,2.3c-0.4,1.5-0.8,3.1-1.2,4.6
			c0,0.4-0.4,0.8-0.4,1.2c-1.9,6.2-4.2,12.3-8.1,18.1C592,452.7,587.7,457.7,582.7,462z"/>
	</g>
</g>
</svg>
