<?xml version="1.0" encoding="utf-8"?>
<!-- Generator: Adobe Illustrator 18.1.1, SVG Export Plug-In . SVG Version: 6.00 Build 0)  -->
<svg version="1.1" id="Layer_1" xmlns="http://www.w3.org/2000/svg" xmlns:xlink="http://www.w3.org/1999/xlink" x="0px" y="0px"
	 viewBox="370.6 255.1 324 310.5" enable-background="new 370.6 255.1 324 310.5" xml:space="preserve">
<g>
	<g>
		<g>
			<path fill="#FFFFFF" d="M537.7,552.2c-78.1,1.4-142.8-60.9-144.2-139c-1.4-78.1,60.9-142.8,139-144.2s142.8,60.9,144.2,139
				C678.1,486,615.7,550.8,537.7,552.2z M532.8,295.2c-63.7,1.1-114.5,53.9-113.4,117.6c1.1,63.7,53.9,114.5,117.6,113.4
				s114.5-53.9,113.4-117.6C649.3,344.9,596.5,294.2,532.8,295.2z"/>
			<polygon fill="#FFFFFF" points="525.8,464.7 475.4,422 495.7,398.2 521.9,420.2 570.2,363.1 594.4,383.4 			"/>
		</g>
	</g>
</g>
</svg>
