<?xml version="1.0" encoding="utf-8"?>
<!-- Generator: Adobe Illustrator 18.1.1, SVG Export Plug-In . SVG Version: 6.00 Build 0)  -->
<svg version="1.1" id="Layer_1" xmlns="http://www.w3.org/2000/svg" xmlns:xlink="http://www.w3.org/1999/xlink" x="0px" y="0px"
	 viewBox="89 0 611 612" enable-background="new 89 0 611 612" xml:space="preserve">
<g>
	<path fill="#FFFFFF" d="M567.5,85.4c-5-1.2-8.8-1.2-13.8-1.2H207.7l0,0h346C558.7,84.1,563.7,84.1,567.5,85.4z M583.8,90.3
		c-1.2,0-1.2-1.2-2.5-1.2C582.5,89.1,583.8,90.3,583.8,90.3z M612.6,114.2c-1.2-1.2-2.5-3.7-3.7-5
		C610.1,111.7,611.4,112.9,612.6,114.2z M637.7,494.1c-2.5,0-3.7,0-6.2,0h-11.3V141.7c0-5,0-8.8-1.2-13.8c1.2,3.7,1.2,8.8,1.2,13.8
		V494h11.3C633.9,494.1,635.2,494.1,637.7,494.1z M649,490.3c-1.2,1.2-3.7,1.2-5,2.5C645.3,491.6,647.8,491.6,649,490.3z
		 M677.8,21.4c-12.5-10-28.8-15.1-45.1-15.1H240.3c-17.6,0-33.8,5-45.1,15.1c-12.5,11.3-20.1,26.3-20.1,41.4v20.1h-12.5
		c-17.6,0-33.8,5-45.1,15.1c-13.8,12.5-21.4,27.5-21.4,43.8v407.5c0,16.3,7.5,31.3,20.1,41.4s28.8,15.1,45.1,15.1h391.2
		c17.6,0,33.8-5,45.1-15.1c12.5-11.3,21.3-26.3,21.3-41.4v-20.1h11.3c17.6,0,33.8-5,45.1-15.1c12.5-11.3,20.1-26.3,20.1-41.4V64
		C697.9,47.7,690.4,32.7,677.8,21.4z M586.3,548c0,12.5-15.1,22.6-32.6,22.6H162.6c-17.6,0-32.6-10-32.6-22.6V141.7
		c0-12.5,15.1-22.6,32.6-22.6h11.3h33.8l0,0h346c17.6,0,32.6,10,32.6,22.6V548L586.3,548z M664.1,470.3c0,5-2.5,10-6.2,13.8
		c0,0,0,0-1.2,1.2c-1.2,1.2-2.5,2.5-3.7,2.5c0,0-1.2,0-1.2,1.3c0,1.2-1.2,0-1.2,1.2c0,0-1.2,0-1.2,1.2c0,0,0,0-1.2,0
		c-1.2,1.3-3.7,1.3-5,2.5h-1.2c0,0,0,0-1.2,0s-2.5,0-3.7,1.2c-2.5,0-3.7,0-6.2,0h-11.3V141.7c0-5,0-8.8-1.2-13.8
		c0-1.2,0-1.2-1.2-2.5c0-1.2,0-1.2-1.2-2.5c0-1.2,0-1.2-1.2-2.5c0-1.2-1.2-1.2-1.2-2.5c-1.2-1.2-1.2-2.5-2.5-3.7
		c-1.3-1.2-2.5-3.7-3.7-5c-1.2-2.5-3.7-3.7-5-6.2c-1.2-1.2-2.5-2.5-5-3.7c-1.2-1.2-1.2-1.2-2.5-2.5c0,0,0,0-1.2-1.2l0,0
		c-1.2,0-1.2-1.2-2.5-1.2c-2.5-1.2-6.2-3.7-8.8-5c-1.2,0-1.2-1.2-2.5-1.2c-1.2,0-2.5-1.2-3.7-1.2h-1.2c-2.5,0-3.7-1.2-6.2-1.2h-1.2
		c-1.2,0-1.2,0-2.5,0c-5-1.2-8.8-1.2-13.8-1.2h-343V64.3c0-2.5,0-5,1.2-7.5s2.5-3.7,5-6.2c6.2-6.2,15.1-10,26.3-10h391.2
		c17.6,0,32.6,10,32.6,22.6V470.3L664.1,470.3z M183.9,154.3h252v33.8h-252V154.3z M491,171.8c0-10,7.5-17.6,17.6-18.8
		c10,0,17.6,7.5,18.8,17.6v1.2c0,10-7.5,17.6-17.6,18.8c-10,0-17.6-7.5-18.8-17.6V171.8z M130,218.2h456.4v33.8H130V218.2L130,218.2
		z"/>
</g>
</svg>
