<?xml version="1.0" encoding="utf-8"?>
<!-- Generator: Adobe Illustrator 18.1.1, SVG Export Plug-In . SVG Version: 6.00 Build 0)  -->
<svg version="1.1" id="Layer_1" xmlns="http://www.w3.org/2000/svg" xmlns:xlink="http://www.w3.org/1999/xlink" x="0px" y="0px"
	 viewBox="86 0 618 612" enable-background="new 86 0 618 612" xml:space="preserve">
<g>
	<path fill="#FFFFFF" d="M695.9,306c0,165.6-134.3,299.9-299.9,299.9S96.1,471.6,96.1,306S230.4,6.1,396,6.1S695.9,140.4,695.9,306z
		 M434.6,478.1c-34-19.6-49.3-49.7-49.4-88.1c-0.2-34,23.1-58.6,35.8-87.3c3.1-7,7-13.6,10.8-20.1c2.3-4.1,4.6-8.5,8-11.6
		c8.6-8,12.5-22.6,9-32.6c-2.9-8.3-4.6-17.1-6.3-25.8c-2.5-12.7-3.5-25.8-7.1-38.1c-18.3-62.7-99.8-69.9-135.5-32.9
		c-16.1,16.6-22.2,36.8-25,58.9c-1.5,11.7-2,23.8-5.7,34.9c-4.8,14.4-2.9,26.9,8.7,37c2.4,2.1,4.7,5.3,5.6,8.3
		c3.2,11.6,9,21.2,18.4,28.8c9.9,7.9,11.5,18.7,10.2,30.5c-2,17.6-14.7,25.8-29,31.6c-14.3,5.8-29.3,9.7-43.6,15.3
		c-11.7,4.6-23.3,11.2-24.8,25c-1.7,16.2-0.9,32.7-0.9,49.1c0.1,9.1,6.2,12.9,14.1,14.3c10.7,1.9,21.4,3.5,32.2,5
		c51.6,7.2,103.3,10.5,155.3,5.6c7.9-0.7,15.7-2.3,25.7-3.9C437.5,479.7,436,478.9,434.6,478.1L434.6,478.1z M577.8,390.9
		c0-46.1-37.3-83.4-83.4-83.4l0,0c-46.1,0-83.4,37.3-83.4,83.4l0,0c0,46.1,37.3,83.4,83.4,83.4l0,0
		C540.4,474.4,577.8,437,577.8,390.9L577.8,390.9z M528.1,404.8c2.4,0,4.9,0,7.3,0c10.5,0,17.5-5.7,17.3-14.1
		c-0.1-8.5-6.9-14.4-17.2-14.7c-2.4-0.1-4.9,0-7.3-0.1c-21.4-0.3-19,2.9-19.5-18.8c-0.1-3.8-0.4-7.7-1.2-11.4
		c-1.7-8-6.6-12.3-14.9-11.8c-8.7,0.6-11.9,6.6-12.5,14.3c-0.5,5.9-0.6,11.9-0.1,17.9c0.7,8.1-2.8,10.8-10.4,10
		c-3.8-0.4-7.7-0.1-11.6-0.1c-12,0.2-17.9,4.8-18.4,14.1s4.8,13.7,17.7,14.6c22.4,1.5,22.4,1.5,22.6,23.1
		c0.1,13.3,4.6,19.5,13.8,19.5c9.1,0,14.4-6.8,15-19.2c0.1-1.4,0-2.8,0-4.2C509.1,402.9,506.4,404.9,528.1,404.8L528.1,404.8z"/>
</g>
</svg>
