<?xml version="1.0" encoding="utf-8"?>
<!-- Generator: Adobe Illustrator 18.1.1, SVG Export Plug-In . SVG Version: 6.00 Build 0)  -->
<svg version="1.1" id="Layer_1" xmlns="http://www.w3.org/2000/svg" xmlns:xlink="http://www.w3.org/1999/xlink" x="0px" y="0px"
	 viewBox="0 0 640 480" enable-background="new 0 0 640 480" xml:space="preserve">
<g>
	<g>
		<path fill="#FFFFFF" d="M277.2,4.8c26.1,0,51,5.1,74.7,15.3s44.3,23.9,61.4,41c17.1,17.1,30.8,37.6,41,61.4
			c10.2,23.8,15.3,48.7,15.3,74.7c0,22.4-3.6,43.8-10.9,64.3c-7.3,20.5-17.7,39.1-31.2,55.8L549,438.6c4.1,4.1,6.2,9.2,6.2,15.2
			c0,6.1-2,11.2-6.1,15.3c-4.1,4.1-9.2,6.1-15.3,6.1c-6,0-11.1-2.1-15.2-6.2L397.3,347.5c-16.7,13.5-35.3,23.9-55.8,31.2
			c-20.5,7.3-42,10.9-64.3,10.9c-26.1,0-51-5.1-74.7-15.3c-23.8-10.2-44.3-23.9-61.4-41c-17.1-17.1-30.8-37.6-41-61.4
			s-15.3-48.7-15.3-74.7s5.1-51,15.3-74.7s23.9-44.3,41-61.4s37.6-30.8,61.4-41C226.3,9.9,251.2,4.8,277.2,4.8z M277.2,47.6
			c-20.3,0-39.6,3.9-58.1,11.9S184.7,78,171.3,91.3c-13.3,13.4-24,29.3-31.9,47.8s-11.9,37.9-11.9,58.1s3.9,39.6,11.9,58.1
			s18.5,34.4,31.9,47.8c13.3,13.3,29.3,24,47.8,31.9c18.5,7.9,37.9,11.9,58.1,11.9s39.6-3.9,58.1-11.9c18.5-7.9,34.4-18.5,47.8-31.9
			c13.3-13.3,24-29.3,31.9-47.8c7.9-18.5,11.9-37.9,11.9-58.1s-3.9-39.6-11.9-58.1c-7.9-18.5-18.5-34.4-31.9-47.8
			c-13.3-13.3-29.3-24-47.8-31.9C316.9,51.5,297.5,47.6,277.2,47.6z"/>
	</g>
</g>
</svg>
