<?xml version="1.0" encoding="utf-8"?>
<!-- Generator: Adobe Illustrator 18.1.1, SVG Export Plug-In . SVG Version: 6.00 Build 0)  -->
<svg version="1.1" id="Layer_1" xmlns="http://www.w3.org/2000/svg" xmlns:xlink="http://www.w3.org/1999/xlink" x="0px" y="0px"
	 viewBox="0 0 640 480" enable-background="new 0 0 640 480" xml:space="preserve">
<path fill="#FFFFFF" d="M520.2,196.1c-3.9,0.3-7.8,0.6-11.7,0.6c-42.7,0-82.4-21.5-105.6-57v194.5c0,79.3-64.3,143.9-143.9,143.9
	c-79.3,0-143.9-64.3-143.9-143.9c0-79.3,64.3-143.9,143.9-143.9l0,0c3.1,0,5.9,0.3,8.9,0.6v71c-3.1-0.3-5.9-0.8-8.9-0.8
	c-40.5,0-73.5,33-73.5,73.5s33,73.5,73.5,73.5s76.3-31.9,76.3-72.4l0.8-330.8H404c6.4,60.9,55.3,108.1,116.2,112.6L520.2,196.1"/>
</svg>
