<?xml version="1.0" encoding="utf-8"?>
<!-- Generator: Adobe Illustrator 18.1.1, SVG Export Plug-In . SVG Version: 6.00 Build 0)  -->
<svg version="1.1" id="Layer_1" xmlns="http://www.w3.org/2000/svg" xmlns:xlink="http://www.w3.org/1999/xlink" x="0px" y="0px"
	 viewBox="0 0 640 480" enable-background="new 0 0 640 480" xml:space="preserve">
<path fill="#FFFFFF" d="M606.8,65.1c-18.2,8.1-38.3,13.1-57.8,16.5c9.2-1.7,22.9-18.4,28.5-25.1c8.4-10.3,15.4-22.4,19.3-34.9
	c0.6-1.1,0.8-2.2,0-3.1c-1.1-0.6-2-0.3-3.1,0.3c-21.8,11.7-44.4,20.1-68.7,26.3c-2,0.6-3.4,0-4.7-1.1c-2-2.2-3.9-4.5-5.9-6.1
	c-10.1-8.7-21-15.4-33.2-20.4c-16.2-6.4-33.8-9.2-51.1-8.1c-16.8,1.1-33.5,5.9-48.3,13.7c-15.1,7.8-28.5,18.7-39.1,31.9
	c-10.9,13.7-19.3,29.6-23.2,46.7c-3.9,16.5-3.6,32.7-1.1,49.2c0.3,2.8,0,3.1-2.2,2.8c-94.4-14-172.4-47.8-235.8-120.1
	c-2.8-3.1-4.2-3.1-6.4,0.3C45.2,74.9,58.6,141.9,93.3,174.6c4.7,4.5,9.5,8.7,14.5,12.9c-2,0.3-24.9-2.2-45.5-12.9
	c-2.8-1.7-4.2-0.8-4.5,2.5c-0.3,4.5,0,8.7,0.8,13.4c5.3,42.2,34.6,81.3,74.6,96.4c4.7,2,10.1,3.6,15.1,4.7c-9.2,2-18.4,3.4-44.7,1.4
	c-3.4-0.6-4.5,1.1-3.4,4.2c19.6,53.6,62,69.6,93.9,78.5c4.2,0.8,8.4,0.8,12.9,1.7c-0.3,0.3-0.6,0.3-0.8,0.8
	c-10.6,15.9-46.9,27.9-64,34.1c-31,10.9-64.5,15.6-97.2,12.6c-5.3-0.8-6.4-0.8-7.8,0c-1.4,0.8-0.3,2.2,1.4,3.6
	c6.7,4.5,13.4,8.4,20.4,12c20.7,10.9,42.5,19.8,65.1,26c116.8,32.4,248.7,8.7,336.4-78.5c69-68.5,93-162.9,93-257.6
	c0-3.6,4.5-5.9,7-7.8c17.9-13.4,32.4-29.6,45.8-47.5c3.1-3.9,3.1-7.5,3.1-9.2c0-0.3,0-0.6,0-0.6C609.3,63.7,609.3,64,606.8,65.1z"/>
</svg>
