<?xml version="1.0" encoding="utf-8"?>
<!-- Generator: Adobe Illustrator 18.1.1, SVG Export Plug-In . SVG Version: 6.00 Build 0)  -->
<svg version="1.1" id="Layer_1" xmlns="http://www.w3.org/2000/svg" xmlns:xlink="http://www.w3.org/1999/xlink" x="0px" y="0px"
	 viewBox="61 -71 720 736" enable-background="new 61 -71 720 736" xml:space="preserve">
<g>
	<path fill="#FFFFFF" stroke="#FFFFFF" stroke-width="34" stroke-miterlimit="10" d="M724.6,167.6c-16.7-40.2-40.5-76.4-71-107.4
		S587.8,4.8,548.3-12.3C507.5-30,464.2-38.9,419.5-38.9s-88,9-129,26.6c-39.4,17-74.9,41.4-105.2,72.5s-54.2,67.2-71,107.4
		c-17.2,41.7-25.9,86-25.9,131.6s8.7,89.9,26.1,131.6c16.7,40.2,40.5,76.4,71,107.4c30.4,31,65.8,55.4,105.2,72.5
		c40.9,17.7,84.1,26.6,128.8,26.6l0,0l0,0c44.7,0,88-9,128.8-26.6c39.4-17,74.7-41.4,105.2-72.5c30.4-31,54.2-67.2,71-107.4
		c17.3-41.7,26.1-86,26.1-131.7S741.8,209.4,724.6,167.6z M738.5,293H592.7c-0.6-41.7-6.7-82.8-18.3-122.1
		c17.7-7.4,33.9-16.3,48.4-26.6c25.7-18,40.3-36.2,47.5-46.6C713.2,153.3,737.1,221.2,738.5,293z M437.4,624.4
		c-3.9,0.2-7.9,0.3-11.8,0.5V412.1c56.5,0.7,100.4,10.3,133.7,22.8c-14.1,43.6-33.1,79.3-50.5,105.9
		C476,591.1,442.8,620,437.4,624.4z M330.5,541.2c-17.4-26.6-36.5-62.3-50.8-106.2c33.3-12.5,77.2-22.1,133.7-22.8v212.7
		c-4-0.1-7.9-0.2-11.8-0.5C396.2,620,363.3,591.3,330.5,541.2z M401.6-25.9c3.9-0.2,7.9-0.3,11.8-0.5v212.7
		c-56.5-0.7-100.4-10.3-133.7-22.8c14.1-43.6,33.1-79.3,50.5-105.9C363,7.3,396.2-21.5,401.6-25.9z M508.7,57.7
		c17.3,26.6,36.3,62.1,50.5,105.9c-33.3,12.5-77.2,22.1-133.7,22.8V-26.5c4,0.1,7.9,0.2,11.8,0.5C442.8-21.5,476,7.3,508.7,57.7z
		 M294.9,181.7c35.2,10.7,75.1,16.5,118.6,16.9V293H258.5c0.7-43.6,7.5-83,17.7-117.6C282.2,177.7,288.4,179.8,294.9,181.7z
		 M413.4,305.4v94.4c-43.5,0.5-83.4,6.1-118.6,16.9c-6.4,1.9-12.6,4.1-18.8,6.3c-10.2-34.6-17-74.1-17.7-117.6H413.4L413.4,305.4z
		 M544.1,416.7c-35.2-10.7-75.1-16.5-118.6-16.9v-94.4h155c-0.7,43.6-7.5,83-17.7,117.6C556.8,420.8,550.6,418.6,544.1,416.7z
		 M425.6,293v-94.4c43.5-0.5,83.4-6.1,118.6-16.9c6.4-1.9,12.6-4.1,18.8-6.3c10.2,34.6,17,74,17.7,117.6H425.6L425.6,293z
		 M645.1,68.9c6,6.1,11.6,12.4,17,18.8c-5.3,8.5-19.2,27.4-46.3,46.3c-11.6,8.2-26.6,16.9-45.2,24.8c-0.3-1.1-0.8-2.3-1.1-3.5
		c-12.3-36.8-29.5-72.2-50.9-105.1c-23.4-36-46.8-61-60.8-74.6C528.4-15.7,593.9,16.7,645.1,68.9z M193.9,68.9
		c51.1-52.2,116.6-84.6,187.5-93.1c-14.1,13.6-37.4,38.7-60.9,74.6c-21.5,33-38.6,68.3-50.9,105.1c-0.4,1.1-0.8,2.3-1.1,3.5
		c-18.3-7.8-33-16.3-44.5-24.4c-27.4-19.2-41.5-38.3-46.9-46.9C182.3,81.3,188,75,193.9,68.9z M168.8,97.6
		c7.1,10.5,21.8,28.5,47.5,46.6c14.6,10.3,30.7,19.2,48.4,26.6c-11.6,39.3-17.8,80.4-18.3,122.1H100.5
		C101.9,221.2,125.8,153.3,168.8,97.6z M100.5,305.4h145.7c0.6,41.7,6.7,82.8,18.3,122.1c-17.7,7.4-33.9,16.3-48.4,26.6
		c-25.7,18-40.3,36.2-47.5,46.6C125.8,445.1,101.9,377.2,100.5,305.4z M193.9,529.6c-6-6.1-11.6-12.4-17-18.8
		c5.3-8.5,19.2-27.4,46.3-46.3c11.6-8.2,26.6-16.9,45.2-24.8c0.4,1.1,0.8,2.3,1.1,3.5c12.3,36.8,29.5,72.2,50.9,105.1
		c23.5,36,46.8,61,60.9,74.6C310.6,614.1,245.1,581.9,193.9,529.6z M419.5,629.9L419.5,629.9v1.2V629.9z M457.6,622.6
		c14.1-13.6,37.4-38.7,60.9-74.6c21.5-33,38.6-68.3,50.9-105.1c0.4-1.1,0.8-2.3,1.1-3.5c18.3,7.8,33,16.3,44.5,24.4
		c27.2,18.9,41.4,38.1,46.9,46.8C611.3,571.3,539.1,612.6,457.6,622.6z M670,500.6c-7.2-10.5-21.8-28.5-47.3-46.5
		c-14.6-10.3-30.7-19.2-48.4-26.6c11.6-39.3,17.8-80.4,18.3-122.1h145.7C737,378.9,711.7,446.7,670,500.6z"/>
</g>
</svg>
